<?xml version="1.0" encoding="utf-8"?>
<!-- Generator: Adobe Illustrator 22.0.1, SVG Export Plug-In . SVG Version: 6.00 Build 0)  -->
<svg version="1.1" id="Layer_1" xmlns="http://www.w3.org/2000/svg" xmlns:xlink="http://www.w3.org/1999/xlink" x="0px" y="0px"
	 viewBox="0 0 156.2 95.4" style="enable-background:new 0 0 156.2 95.4;" xml:space="preserve">
<style type="text/css">
	.st0{fill:url(#SVGID_1_);}
	.st1{fill:url(#SVGID_2_);}
	.st2{fill:url(#SVGID_3_);}
	.st3{fill:url(#SVGID_4_);}
	.st4{fill:url(#SVGID_5_);}
	.st5{fill:url(#SVGID_6_);}
	.st6{fill:url(#SVGID_7_);}
	.st7{fill:url(#SVGID_8_);}
	.st8{fill:url(#SVGID_9_);}
	.st9{fill:url(#SVGID_10_);}
	.st10{fill:url(#SVGID_11_);}
</style>
<g>
	<g>
		<linearGradient id="SVGID_1_" gradientUnits="userSpaceOnUse" x1="114.9152" y1="56.4901" x2="114.9152" y2="45.2756">
			<stop  offset="0" style="stop-color:#FFC20E"/>
			<stop  offset="0.3849" style="stop-color:#FBAB18"/>
			<stop  offset="0.7654" style="stop-color:#F89A1C"/>
			<stop  offset="1" style="stop-color:#F7941D"/>
		</linearGradient>
		<polygon class="st0" points="114.9,50.9 108.1,50.9 108.1,45.3 121.7,45.3 121.7,50.9 121.7,56.5 		"/>
		<linearGradient id="SVGID_2_" gradientUnits="userSpaceOnUse" x1="92.9601" y1="65.8314" x2="66.0491" y2="47.8907">
			<stop  offset="0" style="stop-color:#999999"/>
			<stop  offset="0.2827" style="stop-color:#E6E6E6"/>
			<stop  offset="0.3149" style="stop-color:#E1E1E1"/>
			<stop  offset="0.614" style="stop-color:#BABABA"/>
			<stop  offset="0.8528" style="stop-color:#A2A2A2"/>
			<stop  offset="1" style="stop-color:#999999"/>
		</linearGradient>
		<path class="st1" d="M71.4,45.3v5.2c0,1.5,0.7,2.8,2,4c1.3,1.1,2.9,1.7,4.8,1.7h13.6v5.6H78.2c-3.8,0-7-1.1-9.6-3.3
			c-2.7-2.2-4-4.8-4-7.9v-2.6L71.4,45.3z"/>
		<linearGradient id="SVGID_3_" gradientUnits="userSpaceOnUse" x1="78.1721" y1="47.6088" x2="78.1721" y2="34.0609">
			<stop  offset="0" style="stop-color:#E6E6E6"/>
			<stop  offset="4.488075e-02" style="stop-color:#E1E1E1"/>
			<stop  offset="0.4619" style="stop-color:#BABABA"/>
			<stop  offset="0.7948" style="stop-color:#A2A2A2"/>
			<stop  offset="1" style="stop-color:#999999"/>
		</linearGradient>
		<path class="st2" d="M64.5,47.9v-2.6c0-3.1,1.3-5.7,4-7.9c2.7-2.2,5.9-3.3,9.6-3.3h13.6v5.6H78.2c-1.9,0-3.5,0.6-4.8,1.7
			c-1.3,1.1-2,2.4-2,4l0,0"/>
		<linearGradient id="SVGID_4_" gradientUnits="userSpaceOnUse" x1="116.6552" y1="64.7129" x2="94.9951" y2="48.085">
			<stop  offset="0" style="stop-color:#999999"/>
			<stop  offset="0.2827" style="stop-color:#E6E6E6"/>
			<stop  offset="0.3149" style="stop-color:#E1E1E1"/>
			<stop  offset="0.614" style="stop-color:#BABABA"/>
			<stop  offset="0.8528" style="stop-color:#A2A2A2"/>
			<stop  offset="1" style="stop-color:#999999"/>
		</linearGradient>
		<path class="st3" d="M108.1,61.7c-3.8,0-7-1.1-9.6-3.3c-2.7-2.2-4-4.8-4-7.9v-2.6l6.8-2.6v5.2c0,1.5,0.7,2.8,2,4
			c1.3,1.1,2.9,1.7,4.8,1.7V61.7z"/>
		<linearGradient id="SVGID_5_" gradientUnits="userSpaceOnUse" x1="108.1388" y1="45.3458" x2="108.1388" y2="34.0609">
			<stop  offset="0" style="stop-color:#E6E6E6"/>
			<stop  offset="4.488075e-02" style="stop-color:#E1E1E1"/>
			<stop  offset="0.4619" style="stop-color:#BABABA"/>
			<stop  offset="0.7948" style="stop-color:#A2A2A2"/>
			<stop  offset="1" style="stop-color:#999999"/>
		</linearGradient>
		<path class="st4" d="M94.5,47.9v-2.6c0-3.1,1.3-5.7,4-7.9c2.7-2.2,5.9-3.3,9.6-3.3h13.6v5.6h-13.6c-1.9,0-3.5,0.6-4.8,1.7
			c-1.3,1.1-2,2.4-2,4l0,0"/>
		<linearGradient id="SVGID_6_" gradientUnits="userSpaceOnUse" x1="57.7097" y1="63.6" x2="38.8939" y2="48.0661">
			<stop  offset="0" style="stop-color:#999999"/>
			<stop  offset="0.2827" style="stop-color:#E6E6E6"/>
			<stop  offset="0.3149" style="stop-color:#E1E1E1"/>
			<stop  offset="0.614" style="stop-color:#BABABA"/>
			<stop  offset="0.8528" style="stop-color:#A2A2A2"/>
			<stop  offset="1" style="stop-color:#999999"/>
		</linearGradient>
		<path class="st5" d="M41.2,45.3v5.2c0,1.5,0.7,2.8,2,4c1.3,1.1,2.9,1.7,4.8,1.7h13.6v5.6H48c-3.8,0-7-1.1-9.6-3.3
			c-2.7-2.2-4-4.8-4-7.9v-2.6L41.2,45.3z"/>
		<linearGradient id="SVGID_7_" gradientUnits="userSpaceOnUse" x1="48.0336" y1="45.1287" x2="48.0336" y2="34.0609">
			<stop  offset="0" style="stop-color:#E6E6E6"/>
			<stop  offset="4.488075e-02" style="stop-color:#E1E1E1"/>
			<stop  offset="0.4619" style="stop-color:#BABABA"/>
			<stop  offset="0.7948" style="stop-color:#A2A2A2"/>
			<stop  offset="1" style="stop-color:#999999"/>
		</linearGradient>
		<path class="st6" d="M34.4,47.9v-2.6c0-3.1,1.3-5.7,4-7.9c2.7-2.2,5.9-3.3,9.6-3.3h13.6v5.6H48c-1.9,0-3.5,0.6-4.8,1.7
			c-1.3,1.1-2,2.4-2,4l0,0"/>
		<linearGradient id="SVGID_8_" gradientUnits="userSpaceOnUse" x1="114.9152" y1="45.2756" x2="114.9152" y2="50.8824">
			<stop  offset="0" style="stop-color:#FFC20E"/>
			<stop  offset="0.3849" style="stop-color:#FBAB18"/>
			<stop  offset="0.7654" style="stop-color:#F89A1C"/>
			<stop  offset="1" style="stop-color:#F7941D"/>
		</linearGradient>
		<polygon class="st7" points="108.1,50.9 110.7,47.2 121.7,45.3 108.1,45.3 		"/>
	</g>
	<linearGradient id="SVGID_9_" gradientUnits="userSpaceOnUse" x1="44.8808" y1="56.0949" x2="44.8808" y2="39.6679">
		<stop  offset="0" style="stop-color:#999999"/>
		<stop  offset="0.25" style="stop-color:#E6E6E6"/>
		<stop  offset="0.3407" style="stop-color:#BEBEBE"/>
		<stop  offset="0.4782" style="stop-color:#888888"/>
		<stop  offset="0.5973" style="stop-color:#616161"/>
		<stop  offset="0.6918" style="stop-color:#494949"/>
		<stop  offset="0.75" style="stop-color:#404040"/>
	</linearGradient>
	<path class="st8" d="M41.9,50.5v-5.2c0-1.5,0.7-2.9,2-4c1.3-1.1,2.9-1.7,4.8-1.7h-0.8c-1.9,0-3.5,0.6-4.8,1.7c-1.3,1.1-2,2.4-2,4
		v0.3v4.9c0,1.5,0.7,2.8,2,4c1.3,1.1,2.9,1.7,4.8,1.7h0.8c-1.9,0-3.5-0.6-4.8-1.7C42.5,53.3,41.9,52,41.9,50.5z"/>
	<linearGradient id="SVGID_10_" gradientUnits="userSpaceOnUse" x1="75.1428" y1="56.0949" x2="75.1428" y2="39.6679">
		<stop  offset="0" style="stop-color:#999999"/>
		<stop  offset="0.25" style="stop-color:#E6E6E6"/>
		<stop  offset="0.3407" style="stop-color:#BEBEBE"/>
		<stop  offset="0.4782" style="stop-color:#888888"/>
		<stop  offset="0.5973" style="stop-color:#616161"/>
		<stop  offset="0.6918" style="stop-color:#494949"/>
		<stop  offset="0.75" style="stop-color:#404040"/>
	</linearGradient>
	<path class="st9" d="M72.1,50.5v-5.2c0-1.5,0.7-2.9,2-4c1.3-1.1,2.9-1.7,4.8-1.7h-0.8c-1.9,0-3.5,0.6-4.8,1.7c-1.3,1.1-2,2.4-2,4
		v0.3v4.9c0,1.5,0.7,2.8,2,4c1.3,1.1,2.9,1.7,4.8,1.7h0.8c-1.9,0-3.5-0.6-4.8-1.7C72.8,53.3,72.1,52,72.1,50.5z"/>
	<linearGradient id="SVGID_11_" gradientUnits="userSpaceOnUse" x1="105.1083" y1="56.0949" x2="105.1083" y2="39.6679">
		<stop  offset="0" style="stop-color:#999999"/>
		<stop  offset="0.25" style="stop-color:#E6E6E6"/>
		<stop  offset="0.3407" style="stop-color:#BEBEBE"/>
		<stop  offset="0.4782" style="stop-color:#888888"/>
		<stop  offset="0.5973" style="stop-color:#616161"/>
		<stop  offset="0.6918" style="stop-color:#494949"/>
		<stop  offset="0.75" style="stop-color:#404040"/>
	</linearGradient>
	<path class="st10" d="M108.1,56.1c-1.9,0-3.5-0.6-4.8-1.7c-1.3-1.1-2-2.4-2-4v-4.9v-0.3c0-1.5,0.7-2.9,2-4c1.3-1.1,2.9-1.7,4.8-1.7
		h0.8c-1.9,0-3.5,0.6-4.8,1.7c-1.3,1.1-2,2.4-2,4v5.2c0,1.5,0.7,2.8,2,4C105.2,55.4,106.6,55.9,108.1,56.1L108.1,56.1z"/>
</g>
</svg>
