<svg style="transform:rotate(180deg)" viewBox="-6 -14 24 24" fill="#556472" xmlns="http://www.w3.org/2000/svg">
  <path d="M7.468 5.667c0 .92-.776 1.666-1.734 1.666S4 6.587 4 5.667C4 4.747 4.776 4 5.734 4s1.734.746 1.734 1.667z"/>
  <path fill-rule="evenodd" d="M6.157 4.936a.438.438 0 0 1-.56.293.413.413 0 0 1-.274-.527c.08-.23.23-.44.477-.546a.891.891 0 0 1 .698.014c.387.16.72.545.923.997.428.948.393 2.377-.942 3.706a.446.446 0 0 1-.612.01.405.405 0 0 1-.011-.59c1.093-1.087 1.058-2.158.77-2.794-.152-.336-.354-.514-.47-.563z"/>
  <path d="M11.803 5.667c0 .92-.776 1.666-1.734 1.666-.957 0-1.734-.746-1.734-1.666 0-.92.777-1.667 1.734-1.667.958 0 1.734.746 1.734 1.667z"/>
  <path fill-rule="evenodd" d="M10.492 4.936a.438.438 0 0 1-.56.293.413.413 0 0 1-.274-.527c.08-.23.23-.44.477-.546a.891.891 0 0 1 .698.014c.387.16.72.545.924.997.428.948.392 2.377-.942 3.706a.446.446 0 0 1-.613.01.405.405 0 0 1-.011-.59c1.093-1.087 1.058-2.158.77-2.794-.152-.336-.354-.514-.469-.563z"/>
</svg>
